HIERARCHY
ROOT BEC
{
	OFFSET 0 0 0
	CHANNELS 6 Xposition Yposition Zposition Zrotation Xrotation Yrotation
	JOINT ULW
	{
		OFFSET 0 67.309 48.741
		CHANNELS 3 Zrotation Xrotation Yrotation
		JOINT OLW
		{
			OFFSET 0 -36.7625 98.427
			CHANNELS 3 Zrotation Xrotation Yrotation
			JOINT UBW
			{
				OFFSET 0 20.1596 118.586
				CHANNELS 3 Zrotation Xrotation Yrotation
				JOINT OBW
				{
					OFFSET 0 43.7583 145.861
					CHANNELS 3 Zrotation Xrotation Yrotation
					JOINT UHW
					{
						OFFSET 0 22.5408 128.073
						CHANNELS 3 Zrotation Xrotation Yrotation
						JOINT BRK
						{
							OFFSET 0 -14.8338 65.376
							CHANNELS 3 Zrotation Xrotation Yrotation
							JOINT SB.R
							{
								OFFSET -25 -102.186 0
								CHANNELS 3 Zrotation Xrotation Yrotation
								JOINT OA.R
								{
									OFFSET -156.584 62 -27.6101
									CHANNELS 3 Zrotation Xrotation Yrotation
									JOINT UA.R
									{
										OFFSET -288.549 0 -50.8789
										CHANNELS 3 Zrotation Xrotation Yrotation
										JOINT HA.R
										{
											OFFSET -286.244 0 -50.4726
											CHANNELS 3 Zrotation Xrotation Yrotation
											JOINT FI.R
											{
												OFFSET -104.724 0 -18.4657
												CHANNELS 3 Zrotation Xrotation Yrotation
												End Site
												{
													OFFSET -116.359 0 -20.5172
												}
											}
										}
									}
								}
							}
							JOINT SB.L
							{
								OFFSET 25 -102.186 0
								CHANNELS 3 Zrotation Xrotation Yrotation
								JOINT OA.L
								{
									OFFSET 156.584 62 -27.6101
									CHANNELS 3 Zrotation Xrotation Yrotation
									JOINT UA.L
									{
										OFFSET 288.549 0 -50.8789
										CHANNELS 3 Zrotation Xrotation Yrotation
										JOINT HA.L
										{
											OFFSET 286.244 0 -50.4726
											CHANNELS 3 Zrotation Xrotation Yrotation
											JOINT FI.L
											{
												OFFSET 104.724 0 -18.4657
												CHANNELS 3 Zrotation Xrotation Yrotation
												End Site
												{
													OFFSET 116.359 0 -20.5172
												}
											}
										}
									}
								}
							}
						}
						JOINT OHW
						{
							OFFSET 0 -37.281 164.96
							CHANNELS 3 Zrotation Xrotation Yrotation
							JOINT KO
							{
								OFFSET 0 -24.3035 83.632
								CHANNELS 3 Zrotation Xrotation Yrotation
								JOINT SEH
								{
									OFFSET 0 -111.809 39.7332
									CHANNELS 3 Zrotation Xrotation Yrotation
									End Site
									{
										OFFSET 0 -476.858 -150.353
									}
								}
							}
						}
					}
				}
			}
		}
	}
	JOINT OS.R
	{
		OFFSET -94 0 0
		CHANNELS 3 Zrotation Xrotation Yrotation
		JOINT US.R
		{
			OFFSET 0 0 -476.386
			CHANNELS 3 Zrotation Xrotation Yrotation
			JOINT FU.R
			{
				OFFSET 0 0 -468.613
				CHANNELS 3 Zrotation Xrotation Yrotation
				JOINT FB.R
				{
					OFFSET 0 -167.938 -79.953
					CHANNELS 3 Zrotation Xrotation Yrotation
					End Site
					{
						OFFSET 0 -82.786 0
					}
				}
			}
		}
	}
	JOINT OS.L
	{
		OFFSET 94 0 0
		CHANNELS 3 Zrotation Xrotation Yrotation
		JOINT US.L
		{
			OFFSET 0 0 -476.386
			CHANNELS 3 Zrotation Xrotation Yrotation
			JOINT FU.L
			{
				OFFSET 0 0 -468.613
				CHANNELS 3 Zrotation Xrotation Yrotation
				JOINT FB.L
				{
					OFFSET 0 -167.938 -79.953
					CHANNELS 3 Zrotation Xrotation Yrotation
					End Site
					{
						OFFSET 0 -82.786 0
					}
				}
			}
		}
	}
}
MOTION
Frames: 13
Frame Time: 0.4
1879.42 2663.15 912.692 42.276 13.2163 2.08 0.0108102 -9.78639 -2.03303 -0.0586693 -5.74306 -9.3211 9.51254 10.815 8.01059 19.5279 18.8181 3.65981 16.9432 10.2253 9.2503 -0.0268939 -0.943229 -0.000846802 -12.1256 0.0658914 1.22311 3.85826 -1.7713 -74.1368 79.3496 -7.13555 8.42961 -0.0314367 -0.178286 -4.89103e-05 1.4321e-08 8.12184e-08 -1.11319e-14 -23.2361 -1.82324 -0.416949 -4.30541 -19.1034 60.0767 -65.6182 -13.63 -6.54735 0.0140413 -0.0796321 9.75759e-06 -5.49502e-08 3.11638e-07 1.23246e-14 -6.47253 -13.3246 -7.24369 -8.75438 -6.0779 -5.14259 -0.0062175 0.0953241 0.00112722 18.882 -9.67942 5.11832 -2.19755 30.7819 1.88403 -0.11508 -26.6312 -3.40723 0.00582789 -0.763244 -0.00889875 60.5865 -23.3385 15.7387 2.35477 1.31823 -0.010098 0.136589 -6.41742 -1.61389 0.000340433 0.214158 -0.00189035
1913.5 2654.07 911.009 43.085 13.3772 3.088 0.0134654 -9.91954 -2.07713 -0.0574086 -5.75429 -9.35314 8.99056 10.5187 8.23576 18.2678 18.6361 4.17499 16.0851 10.0046 9.42531 -0.0302311 -0.934391 -0.00206176 -11.5475 0.0586092 0.994693 6.42176 -2.76179 -74.8808 78.7338 -7.14018 8.30973 -0.0324712 -0.184153 -5.21825e-05 9.04414e-09 5.12918e-08 1.59028e-15 -23.7151 -1.83199 -2.07257 -5.17069 -20.5658 58.7719 -61.5829 -13.362 -5.77483 0.0160669 -0.09112 1.2776e-05 -9.84474e-08 5.58323e-07 -3.18055e-15 -5.31125 -13.2193 -7.87297 -7.02522 -6.04796 -5.61234 -0.00886032 0.135383 4.34414e-05 22.4509 -10.801 4.24204 -6.40403 35.5156 4.14082 -0.0486645 -27.8044 -3.40529 0.00287606 -0.827608 -0.00467883 61.5593 -22.9475 15.3751 0.354689 1.95657 0.0336883 0.165469 -3.21413 -1.68542 0.00028069 0.208342 -0.00247409
1947.02 2646.12 912.953 43.987 13.4808 4.153 0.0183897 -10.0391 -2.13588 -0.0578021 -5.7844 -9.38587 8.26729 10.2408 8.45345 16.6889 18.5125 4.62984 14.9424 9.99487 9.50189 -0.0188351 -0.881522 -0.000898057 -10.8553 0.0180378 0.433845 10.0244 -3.93792 -74.5453 77.8629 -7.04699 8.41202 -0.049091 -0.278406 -0.000119269 8.39595e-08 4.76158e-07 1.27222e-14 -23.4442 -1.8864 -3.33216 -4.66919 -22.5089 58.0499 -56.9264 -13.2353 -4.76446 -0.00320838 0.0181956 5.09449e-07 -9.24364e-09 5.24233e-08 7.95139e-16 -4.46449 -12.7104 -8.69234 -5.77492 -5.74823 -6.22822 -0.0143758 0.239599 -0.0047646 23.4873 -13.3221 3.52422 -8.90922 41.8355 5.74309 0.0100632 -28.4687 -3.48187 0.00114175 -0.867535 -0.00088913 60.6416 -22.7485 14.0708 -0.535901 2.26786 0.055066 0.148652 0.214712 -1.6657 -0.0014195 0.177631 -0.00263138
1979.5 2639.72 916.352 44.724 13.2738 5.36 0.0264862 -10.1018 -2.21475 -0.0608511 -5.7786 -9.40088 7.46334 10.106 8.53032 15.0845 18.5476 4.86274 13.6762 10.1693 9.39891 -0.00274558 -0.836911 0.00266197 -9.87201 -0.0270424 -0.00637674 13.9171 -5.0028 -72.9899 76.8344 -6.99762 8.42892 -0.0615559 -0.349096 -0.000187527 2.34995e-07 1.33272e-06 1.74931e-14 -22.2614 -1.96771 -3.92345 -3.00206 -24.6299 58.4847 -52.9266 -13.1105 -4.0343 -0.0229229 0.130002 2.60057e-05 8.93836e-08 -5.0692e-07 1.51076e-14 -4.35939 -11.8256 -9.67427 -5.65086 -5.14371 -6.9592 -0.0231498 0.401258 -0.00663238 22.5294 -16.6688 2.74959 -9.61408 49.0003 6.6637 -0.0181791 -27.6153 -3.59807 0.00081004 -0.899881 0.00139127 57.0675 -22.7976 11.3257 0.791679 2.16984 0.0328556 0.102323 3.29075 -1.62539 -0.00451176 0.103133 -6.89174e-05
2010.22 2634.41 919.174 45.32 12.6677 6.652 0.0321633 -10.0661 -2.30473 -0.0667876 -5.66905 -9.39264 6.69712 10.176 8.42008 13.678 18.7492 4.881 12.4277 10.4384 9.15142 0.00531413 -0.844987 0.00456232 -8.22857 -0.0534668 0.00212261 16.6366 -5.54214 -71.103 76.0851 -7.19957 8.20285 -0.0375228 -0.212801 -6.96816e-05 6.01256e-08 3.40989e-07 1.27222e-14 -20.4935 -2.04768 -4.25624 -0.283411 -26.3232 60.5534 -50.7205 -12.9467 -3.84987 -0.025281 0.143375 3.16312e-05 1.16547e-07 -6.60968e-07 -1.59028e-15 -4.95913 -10.597 -10.5621 -6.61659 -4.22615 -7.59391 -0.0260224 0.458961 0.000473686 20.9373 -20.0424 1.68052 -9.1959 55.364 7.06095 -0.176674 -24.2749 -3.5728 0.00169244 -0.939967 0.00195495 50.4693 -22.7106 7.0168 4.4784 1.77321 -0.0329977 0.0433981 5.35305 -1.63667 -0.00689538 -0.00407751 0.00428666
2037.91 2629.66 920.868 45.984 11.9015 7.868 0.0276126 -9.91256 -2.37843 -0.0723936 -5.41792 -9.38909 6.02202 10.4023 8.19065 12.4977 19.0376 4.83059 11.2513 10.6855 8.89916 0.00429787 -0.887833 0.00292393 -5.83301 -0.0503563 0.622906 17.2912 -5.54123 -70.2375 75.8408 -7.72274 7.97973 0.0290219 0.164591 -4.16851e-05 -1.10002e-07 -6.23853e-07 1.59028e-15 -18.7718 -2.11327 -4.6685 3.15106 -27.1581 63.6164 -50.5189 -12.8148 -3.97264 -0.0135033 0.0765809 9.02417e-06 3.0232e-08 -1.71454e-07 1.39149e-14 -5.67901 -9.16105 -11.0563 -7.78686 -3.14304 -7.90011 -0.0202158 0.351031 0.00585579 19.9455 -22.9848 0.479478 -8.38131 59.3161 6.95149 -0.431106 -18.5081 -3.35904 0.00302784 -0.990817 0.000655131 41.6641 -21.9059 1.94271 9.64755 1.24533 -0.107375 -0.0110531 5.92475 -1.70973 -0.00633709 -0.110324 0.00582522
2060.92 2625.69 922.285 46.818 11.422 8.865 0.0143572 -9.65789 -2.40537 -0.0733304 -5.04397 -9.45535 5.42358 10.6651 7.99558 11.441 19.3357 4.87047 10.1464 10.8538 8.82415 -7.39652e-05 -0.920173 0.000517077 -3.01916 -0.0255136 1.68951 16.064 -5.37747 -71.045 76.0903 -8.29128 8.0237 0.090894 0.515471 -0.000408875 -2.22272e-07 -1.26057e-06 1.27222e-14 -17.5232 -2.17535 -5.0073 6.34765 -27.5778 66.0638 -51.3083 -12.7553 -4.03166 -0.00154375 0.00875502 1.17945e-07 4.42173e-09 -2.50767e-08 -5.1684e-15 -5.85774 -7.77346 -11.0368 -8.15891 -2.14779 -7.82272 -0.0170964 0.231183 0.00302733 19.9241 -25.652 -0.437852 -7.42469 60.1976 6.29752 -0.632448 -11.515 -3.14123 0.00348637 -1.04021 -0.0010242 32.8296 -20.4418 -2.3818 14.8752 0.791341 -0.163703 -0.0334799 4.88704 -1.84589 -0.00346271 -0.192103 0.00309024
2078.5 2623.21 924.151 47.66 11.5314 9.547 0.0042515 -9.34093 -2.37367 -0.0686975 -4.63297 -9.64484 4.87221 10.8794 7.99865 10.4214 19.6222 5.09813 9.10657 10.9696 9.05534 -0.00546195 -0.929527 -0.000535064 -0.318588 0.00556246 2.76502 13.8555 -5.46895 -73.039 76.8824 -8.51408 8.28038 0.0937687 0.531773 -0.000435146 -3.82999e-07 -2.1721e-06 -1.59028e-14 -16.5539 -2.24008 -4.97683 8.21426 -28.675 66.8051 -51.5335 -12.7068 -3.90214 0.00280948 -0.0159333 3.90642e-07 1.31958e-10 -7.48478e-10 -1.51076e-14 -5.3493 -6.64949 -10.6709 -7.49327 -1.39526 -7.53533 -0.0176101 0.18393 -0.000208648 20.2645 -28.3126 -0.816839 -6.971 58.124 5.90931 -0.464172 -4.5646 -3.13695 0.00273074 -1.07677 -0.000218458 26.4538 -19.1852 -4.8195 18.6849 0.682626 -0.224151 -0.0150757 2.40173 -2.0462 -0.00088727 -0.261194 -0.000898626
2091.56 2622.75 925.92 48.344 12.2428 9.89 0.00398066 -9.01206 -2.29543 -0.0622569 -4.29222 -9.94789 4.355 11.0144 8.25355 9.39177 19.8796 5.5327 8.10691 11.0698 9.56771 -0.0102169 -0.926106 -0.000637259 1.88652 0.0277078 3.3785 11.6893 -6.05389 -75.0818 78.2273 -8.33227 8.49483 0.0442371 0.250879 -9.685e-05 -1.63287e-07 -9.26049e-07 3.18055e-15 -15.2157 -2.31249 -4.5521 8.19923 -31.2051 66.0932 -50.0471 -12.5509 -3.56426 -0.00159414 0.00904082 1.25771e-07 2.47587e-09 -1.40413e-08 3.97569e-15 -4.56579 -5.85534 -10.2818 -6.38648 -0.885474 -7.27928 -0.0128205 0.136764 -0.00017753 19.6745 -30.892 -0.883023 -7.4229 53.4385 6.45049 0.196483 1.65007 -3.36828 0.000868004 -1.09847 0.00547024 23.8012 -18.9482 -5.19507 20.0737 1.17315 -0.35003 0.020368 -1.30626 -2.21929 0.000709539 -0.356483 -0.00320536
2101.79 2624.02 926.412 48.853 13.3727 10.01 0.00636023 -8.72594 -2.2073 -0.0579008 -4.07381 -10.2836 3.8841 11.104 8.64614 8.39141 20.0608 6.08282 7.15291 11.1529 10.1355 -0.0113719 -0.913306 -0.000556549 3.57283 0.0304095 3.29756 10.2436 -7.108 -76.1175 79.9487 -8.07916 8.57749 0.00218183 0.0123738 -2.35597e-07 -4.94211e-08 -2.80281e-07 1.59028e-14 -13.0936 -2.42031 -3.84793 6.60761 -35.2294 64.9769 -46.4673 -12.2306 -2.88937 -0.0159219 0.0902977 1.25464e-05 4.8227e-08 -2.73509e-07 1.98785e-15 -3.91425 -5.50186 -10.0711 -5.46036 -0.66777 -7.17515 -0.00467878 0.0819332 0.00034047 17.0834 -33.0776 -1.30578 -7.81196 46.5363 6.95335 0.775591 6.72001 -3.54416 -0.00239044 -1.11606 0.0166863 24.1481 -19.7824 -4.10533 19.1409 2.35621 -0.616888 0.0542379 -6.0109 -2.25426 0.00223625 -0.508529 -0.00157378
2110.42 2625.81 925.298 49.272 14.7289 10.174 -0.00133483 -8.52462 -2.15598 -0.0559633 -3.9707 -10.5512 3.47061 11.2271 8.95331 7.51196 20.1448 6.55695 6.30228 11.1763 10.4379 -0.00810852 -0.890144 -0.000456783 4.94432 0.0106928 2.8925 9.65148 -8.27779 -75.9302 81.7634 -7.99224 8.68188 -3.53579e-05 -0.000200525 -6.18841e-11 -7.06478e-09 -4.00663e-08 -1.11319e-14 -10.3806 -2.58025 -2.69309 4.29846 -40.4733 64.2273 -40.9898 -11.687 -1.84911 -0.0323674 0.183564 5.18493e-05 2.48962e-07 -1.41194e-06 -7.55382e-15 -3.29191 -5.76708 -10.028 -4.57581 -0.876919 -7.21622 0.00621082 0.0427772 -0.000281957 12.6008 -34.7018 -2.62398 -7.45461 38.4091 6.37337 0.671509 9.9494 -3.43094 -0.00619988 -1.14545 0.0236007 25.6698 -21.3055 -2.52482 17.0301 4.0479 -1.01527 0.0557313 -11.4385 -2.23551 0.00249095 -0.715472 0.00220734
2117.66 2626.61 923.697 49.642 16.2135 10.679 -0.0223062 -8.42044 -2.16639 -0.0548634 -3.94481 -10.7028 3.14614 11.4328 8.96019 6.84146 20.2001 6.74317 5.64324 11.1706 10.273 -0.00375345 -0.86461 -0.000135412 6.11299 -0.0224866 2.87899 9.45362 -9.1168 -75.1081 83.4873 -7.90859 8.86832 0.00820982 0.0465602 -3.33577e-06 -9.09865e-09 -5.1601e-08 1.43125e-14 -7.84657 -2.73358 -0.613876 2.14125 -46.6287 63.837 -34.2752 -10.847 -0.713727 -0.037302 0.211549 6.8864e-05 5.96938e-07 -3.38541e-06 2.74323e-14 -2.25056 -6.80326 -9.94455 -3.08081 -1.65673 -7.26809 0.0213392 0.0249928 -0.000372436 7.5104 -35.8664 -4.78092 -6.48479 30.7072 4.72663 0.142685 10.5873 -3.29002 -0.00768691 -1.19017 0.0161842 26.6739 -23.2408 -1.43511 15.3461 5.85387 -1.48619 -0.0532326 -17.4249 -2.38383 -0.00115822 -0.946675 0.002179
2123.43 2625.3 923.332 49.963 17.7483 11.648 -0.0409409 -8.39682 -2.2397 -0.0545736 -3.94747 -10.7412 2.93064 11.726 8.60413 6.41961 20.3451 6.57021 5.21249 11.279 9.69064 -0.00143546 -0.842725 0.000280634 7.13809 -0.0537321 3.63622 8.95794 -9.40617 -74.4185 85.1754 -7.69549 9.1128 0.008855 0.0502192 -3.88066e-06 7.87712e-10 4.46747e-09 -7.95139e-15 -6.52427 -2.80395 2.56787 0.856886 -53.4109 63.4768 -27.2393 -9.76792 0.13645 -0.0290933 0.164996 4.18904e-05 6.2371e-07 -3.53723e-06 1.27222e-14 -0.581839 -8.61644 -9.51599 -0.690189 -3.03526 -7.06992 0.0272015 0.0690243 0.000651269 3.36194 -36.8002 -7.23648 -4.97785 24.8755 2.75699 -0.149588 8.75578 -3.49252 -0.00513651 -1.24387 0.00301124 26.1786 -25.4402 -1.47649 15.5181 7.53359 -2.12175 -0.288307 -23.6418 -2.74829 -0.00721331 -1.15886 -0.00338825
